<svg width="325" height="96" viewBox="0 0 325 96" fill="none" xmlns="http://www.w3.org/2000/svg">
<path d="M72.3583 32.0874H82.7194V26.1631H72.3583V17.6543H87.1077V11.0621H66.0807C65.7455 11.0621 65.4712 11.3235 65.4712 11.6429V41.3803C65.4712 41.6998 65.7455 41.9611 66.0807 41.9611H86.6201C86.8943 41.9611 87.1381 41.7288 87.1381 41.4674V35.3109H72.3888V32.0874H72.3583Z" fill="#222222"/>
<path d="M113.437 22.7936C113.437 15.1269 106.885 11.0322 102.162 11.0322H91.4654C91.2521 11.0322 91.0692 11.2065 91.0692 11.4097V41.4375C91.0692 41.6989 91.313 41.9312 91.5873 41.9312H97.4687C97.743 41.9312 97.9868 41.6989 97.9868 41.4375V33.7128L102.07 33.6837L106.215 41.6698C106.306 41.8441 106.489 41.9312 106.672 41.9312H113.315L108.257 32.2317C111.548 30.257 113.437 26.8302 113.437 22.7936ZM97.9563 17.6244H102.131C103.289 17.6244 106.459 18.8441 106.459 22.7936C106.459 26.8883 103.198 27.0916 103.076 27.0916H97.9259V17.6244H97.9563Z" fill="#222222"/>
<path d="M117.338 41.9312H123.829C124.072 41.9312 124.286 41.7279 124.286 41.4956V11.0322H117.795C117.551 11.0322 117.338 11.2355 117.338 11.4678V41.9312Z" fill="#222222"/>
<path d="M151.621 32.8704C151.407 32.6671 151.072 32.6671 150.859 32.8413C149.122 34.4095 146.806 35.2807 144.429 35.2807C139.248 35.2807 135.013 31.2151 135.134 26.2782C135.226 22.1254 138.365 18.5244 142.661 17.7693C145.648 17.2176 148.665 18.0888 150.737 19.9474C150.95 20.1507 151.316 20.1216 151.529 19.9183L155.948 15.5623C152.901 12.6001 148.817 10.9739 144.459 10.9739C135.317 10.9739 127.912 18.234 128.247 27.0332C128.552 35.3098 135.835 41.96 144.551 41.9019C148.939 41.8729 153.053 40.2176 156.131 37.1684L151.621 32.8704Z" fill="#222222"/>
<path d="M174.75 10.8865H169.326C169.113 10.8865 168.899 11.0317 168.839 11.235L157.563 41.3499C157.472 41.6403 157.685 41.9307 157.99 41.9307H164.328C164.511 41.9307 164.694 41.8145 164.755 41.6403L166.919 35.9193H177.219L179.352 41.6403C179.413 41.8145 179.596 41.9307 179.779 41.9307H186.117C186.422 41.9307 186.635 41.6403 186.544 41.3499L175.269 11.235C175.177 11.0317 174.964 10.8865 174.75 10.8865ZM169.082 29.9951L172.038 22.2703L174.933 29.9951H169.082Z" fill="#222222"/>
<path d="M206.321 28.3398L196.57 11.3512C196.478 11.206 196.295 11.0898 196.113 11.0898H189.926C189.652 11.0898 189.408 11.3222 189.408 11.5835V41.4661C189.408 41.7274 189.622 41.9307 189.896 41.9307H195.808C196.082 41.9307 196.295 41.7274 196.295 41.4661V24.6517L205.986 41.6984C206.078 41.8436 206.23 41.9598 206.413 41.9598H212.66C212.934 41.9598 213.148 41.7565 213.148 41.4951V11.5545C213.148 11.2931 212.904 11.0608 212.629 11.0608H206.748C206.474 11.0608 206.23 11.2931 206.23 11.5545V28.3398H206.321Z" fill="#222222"/>
<path d="M153.784 64.0594C153.784 68.4155 152.535 69.9547 149 69.9547C145.038 69.9547 143.941 68.6769 143.941 64.0594V46.1415C143.941 45.8802 143.698 45.6478 143.423 45.6478H137.542C137.268 45.6478 137.024 45.8802 137.024 46.1415V64.0594C137.024 72.394 141.046 76.6049 149 76.6049C156.588 76.6049 160.732 72.1617 160.732 64.0594V46.1415C160.732 45.8802 160.489 45.6478 160.214 45.6478H154.272C153.998 45.6478 153.754 45.8802 153.754 46.1415V64.0594H153.784Z" fill="white" stroke="#222222" stroke-width="2"/>
<path d="M187.031 57.4092C187.031 49.7425 180.48 45.6478 175.756 45.6478H165.151C164.877 45.6478 164.633 45.8802 164.633 46.1415V76.0822C164.633 76.3435 164.877 76.5758 165.151 76.5758H171.033C171.307 76.5758 171.551 76.3435 171.551 76.0822V68.3284L175.634 68.2993L179.779 76.2854C179.87 76.4597 180.053 76.5468 180.236 76.5468H186.879L181.82 66.8473C185.142 64.8726 187.031 61.4458 187.031 57.4092ZM171.551 52.24H175.726C176.884 52.24 180.053 53.4597 180.053 57.4092C180.053 61.5039 176.792 61.7072 176.67 61.7072H171.52V52.24H171.551Z" fill="white" stroke="#222222" stroke-width="2"/>
<path d="M210.466 60.4585C211.289 58.9483 211.746 57.0898 211.746 55.115C211.746 49.4521 207.54 45.6769 201.293 45.6769H191.45C191.176 45.6769 190.932 45.9092 190.932 46.1706V75.966C190.932 76.2274 191.176 76.4597 191.45 76.4597H203.883C209.399 76.4597 213.239 72.7135 213.239 67.3701C213.239 64.466 212.294 62.0847 210.466 60.4585ZM202.512 58.2223L197.819 58.2514V52.24H201.263C204.767 52.24 204.767 54.0405 204.767 55.086C204.767 57.4673 204.28 58.1352 202.512 58.2223ZM203.883 69.8385H197.819V64.8436L204.493 64.8145C205.712 64.9016 206.321 65.7438 206.321 67.341C206.321 68.9963 205.499 69.8385 203.883 69.8385Z" fill="white" stroke="#222222" stroke-width="2"/>
<path d="M129.954 67.5153C129.771 67.341 129.436 67.312 129.253 67.4862C127.516 69.0544 125.169 69.9547 122.793 69.9547C117.612 69.9547 113.376 65.889 113.498 60.9521C113.589 56.7994 116.728 53.1983 121.025 52.4433C124.042 51.8915 127.059 52.7627 129.131 54.6504C129.344 54.8246 129.649 54.8246 129.832 54.6213L134.281 50.2362C131.234 47.2741 127.15 45.6478 122.793 45.6478C113.65 45.6478 106.245 52.9079 106.58 61.7072C106.885 69.9837 114.168 76.634 122.884 76.5759C127.272 76.5469 131.386 74.8916 134.464 71.8423L129.954 67.5153Z" fill="white" stroke="#222222" stroke-width="2"/>
<path d="M54.3483 11.3525L47.2174 25.0015L40.1475 11.4687C40.056 11.2945 39.8732 11.1783 39.6903 11.1783L33.4737 11.0621C33.1689 11.0621 32.9251 11.2945 32.9251 11.5849V41.4384C32.9251 41.6997 33.1689 41.9321 33.4432 41.9321H39.3247C39.5989 41.9321 39.8427 41.6997 39.8427 41.4384V25.7566L44.1091 33.946C44.5662 34.8172 45.389 35.4851 46.3641 35.7174C47.9488 36.0949 49.5334 35.3399 50.2343 34.004L54.5921 25.6985V41.4384C54.5921 41.6997 54.8359 41.9321 55.1101 41.9321H61.0221C61.2963 41.9321 61.5401 41.6997 61.5401 41.4384V11.5849C61.5401 11.2945 61.2963 11.0621 60.9916 11.0621H54.8054C54.6225 11.0621 54.4397 11.1783 54.3483 11.3525Z" fill="#222222"/>
<path d="M106.55 94.321H107.525V89.5003H106.55V88.4548H110.085V89.5003H108.927V94.321H111.273V93.2175H112.553V95.3665H106.55V94.321Z" fill="#222222"/>
<path d="M112.797 94.3197H113.65L115.692 89.499H114.686V88.4535H117.673L120.172 94.3487H121.056V95.3942H117.795V94.3487H118.74L118.343 93.3904H115.357L114.961 94.3487H115.905V95.3942H112.736V94.3197H112.797ZM117.978 92.3159L116.911 89.7022L115.844 92.3159H117.978Z" fill="#222222"/>
<path d="M121.513 94.3197H122.488V89.499H121.513V88.4535H123.92L127.394 93.2452V89.499H126.419V88.4535H129.68V89.499H128.705V95.3942H127.486L123.798 90.3411V94.2906H124.773V95.3361H121.513V94.3197Z" fill="#222222"/>
<path d="M130.563 94.3197H131.539V89.499H130.563V88.4535H134.007C136.658 88.4535 137.908 89.8765 137.908 91.9093C137.908 93.9712 136.628 95.3651 134.007 95.3651H130.563V94.3197ZM134.007 94.3197C135.713 94.3197 136.475 93.4194 136.475 91.9093C136.475 90.3992 135.713 89.499 134.007 89.499H132.94V94.3197H134.007Z" fill="#222222"/>
<path d="M138.913 95.1327V93.3903H140.163V94.2906C140.437 94.3486 140.864 94.4358 141.412 94.4358C142.174 94.4358 142.905 94.2615 142.905 93.5645C142.905 91.9964 139.005 92.8385 139.005 90.283C139.005 88.8309 140.285 88.2792 141.717 88.2792C142.54 88.2792 143.423 88.4534 144.033 88.6567V90.341H142.753V89.4117C142.509 89.3827 142.113 89.3246 141.747 89.3246C141.046 89.3246 140.315 89.5279 140.315 90.1668C140.315 91.6479 144.216 90.8347 144.216 93.4774C144.216 94.9875 142.905 95.4812 141.473 95.4812C140.528 95.4812 139.614 95.2779 138.913 95.1327Z" fill="#222222"/>
<path d="M145.191 91.9389C145.191 89.6447 146.806 88.3088 149.061 88.3088C150.219 88.3088 151.316 88.6573 151.773 88.8606V90.8644H150.463V89.5866C150.128 89.4995 149.61 89.4124 149.152 89.4124C147.659 89.4124 146.623 90.2836 146.623 91.8808C146.623 93.5071 147.72 94.3783 149.213 94.3783C150.219 94.3783 151.103 94.0007 151.743 93.6523V94.901C151.255 95.1624 150.31 95.5108 149.091 95.5108C146.715 95.4818 145.191 94.175 145.191 91.9389Z" fill="#222222"/>
<path d="M152.291 94.3197H153.145L155.186 89.499H154.181V88.4535H157.167L159.666 94.3487H160.55V95.3942H157.289V94.3487H158.234L157.838 93.3904H154.882L154.485 94.3487H155.43V95.3942H152.261V94.3197H152.291ZM157.441 92.3159L156.375 89.7022L155.308 92.3159H157.441Z" fill="#222222"/>
<path d="M160.976 94.3197H161.951V89.499H160.976V88.4535H164.359C166.523 88.4535 167.345 89.5861 167.345 90.7186C167.345 91.8512 166.523 92.9838 164.359 92.9838H163.323V94.3487H164.542V95.3942H160.976V94.3197ZM163.353 91.8803H164.42C165.578 91.8803 165.944 91.2704 165.944 90.6606C165.944 90.0507 165.578 89.4409 164.42 89.4409H163.353V91.8803Z" fill="#222222"/>
<path d="M168.046 94.3197H169.021V89.499H168.046V88.4535H174.05V90.4863H172.77V89.499H170.423V91.3866H173.166V92.432H170.423V94.3487H172.8V93.3032H174.08V95.3942H168.046V94.3197Z" fill="#222222"/>
<path d="M177.645 91.9389C177.645 89.6447 179.261 88.3088 181.516 88.3088C182.674 88.3088 183.771 88.6573 184.228 88.8606V90.8644H182.917V89.5866C182.582 89.4995 182.064 89.4124 181.607 89.4124C180.114 89.4124 179.078 90.2836 179.078 91.8808C179.078 93.5071 180.175 94.3783 181.668 94.3783C182.674 94.3783 183.557 94.0007 184.197 93.6523V94.901C183.71 95.1624 182.765 95.5108 181.546 95.5108C179.169 95.4818 177.645 94.175 177.645 91.9389Z" fill="#222222"/>
<path d="M185.965 93.0133V89.4994H184.99V88.454H188.342V89.4994H187.367V92.8971C187.367 93.9426 188.098 94.3201 188.982 94.3201C189.865 94.3201 190.597 93.9426 190.597 92.8681V89.4704H189.591V88.4249H192.882V89.4704H191.907V92.8971C191.907 94.5234 190.78 95.5108 188.951 95.5108C187.397 95.4817 185.965 94.8138 185.965 93.0133Z" fill="#222222"/>
<path d="M193.614 94.3197H194.589V89.499H193.614V88.4535H197.118C199.282 88.4535 200.074 89.5861 200.074 90.6315C200.074 91.4446 199.587 92.1707 198.612 92.4901L199.709 94.3197H200.592V95.3651H198.764L197.271 92.8386H195.96V94.3197H196.935V95.3651H193.583V94.3197H193.614ZM197.149 91.7931C198.307 91.7931 198.703 91.2414 198.703 90.6315C198.703 90.0217 198.307 89.4699 197.149 89.4699H195.991V91.7931H197.149Z" fill="#222222"/>
<path d="M201.415 94.3197H202.39V89.499H201.415V88.4535H205.041C206.657 88.4535 207.754 89.1214 207.754 90.254C207.754 90.9219 207.388 91.5318 206.382 91.8222C207.479 92.0835 207.967 92.7224 207.967 93.5065C207.967 94.6391 206.992 95.3651 205.194 95.3651H201.415V94.3197ZM204.95 91.3285C205.864 91.3285 206.382 90.98 206.382 90.3702C206.382 89.7603 205.864 89.4409 205.041 89.4409H203.762V91.3285H204.95ZM205.163 94.3197C206.047 94.3197 206.596 93.9712 206.596 93.3323C206.596 92.7224 206.108 92.3449 205.133 92.3449H203.762V94.3197H205.163Z" fill="#222222"/>
<path d="M208.942 94.3197H209.917V89.499H208.942V88.4535H212.294V89.499H211.319V94.3197H212.294V95.3651H208.942V94.3197Z" fill="#222222"/>
<path d="M213.3 94.3197H214.275V89.499H213.3V88.4535H215.707L219.181 93.2452V89.499H218.206V88.4535H221.467V89.499H220.492V95.3942H219.273L215.585 90.3992V94.3487H216.561V95.3942H213.3V94.3197Z" fill="#222222"/>
<path d="M222.168 91.9389C222.168 89.7318 223.6 88.3088 226.129 88.3088C227.287 88.3088 228.384 88.6283 228.994 88.9187V90.7192H227.684V89.6447C227.257 89.5285 226.708 89.4124 226.16 89.4124C224.514 89.4124 223.57 90.3707 223.57 91.9389C223.57 93.6232 224.636 94.4073 226.19 94.4073C226.708 94.4073 227.226 94.2912 227.684 94.146V92.6649H226.16V91.6485H229.573V92.6649H228.963V94.8139C228.415 95.1043 227.379 95.4818 226.099 95.4818C223.752 95.4818 222.168 94.2331 222.168 91.9389Z" fill="#222222"/>
<path d="M232.986 94.3197H233.961V89.499H232.986V88.4535H236.369C238.532 88.4535 239.355 89.5861 239.355 90.7186C239.355 91.8512 238.532 92.9838 236.369 92.9838H235.333V94.3487H236.551V95.3942H232.956V94.3197H232.986ZM235.333 91.8803H236.399C237.557 91.8803 237.923 91.2704 237.923 90.6606C237.923 90.0507 237.557 89.4409 236.399 89.4409H235.333V91.8803Z" fill="#222222"/>
<path d="M240.056 94.3197H241.031V89.499H240.056V88.4535H243.56C245.724 88.4535 246.516 89.5861 246.516 90.6315C246.516 91.4446 246.029 92.1707 245.054 92.4901L246.151 94.3197H247.034V95.3651H245.206L243.713 92.8386H242.402V94.3197H243.378V95.3651H240.025V94.3197H240.056ZM243.591 91.7931C244.749 91.7931 245.145 91.2414 245.145 90.6315C245.145 90.0217 244.749 89.4699 243.591 89.4699H242.433V91.7931H243.591Z" fill="#222222"/>
<path d="M247.705 91.9098C247.705 89.7899 249.289 88.3088 251.484 88.3088C253.678 88.3088 255.262 89.7899 255.262 91.9098C255.262 94.0298 253.678 95.5108 251.484 95.5108C249.289 95.4818 247.705 94.0298 247.705 91.9098ZM253.861 91.9098C253.861 90.3707 252.855 89.4124 251.484 89.4124C250.112 89.4124 249.107 90.3707 249.107 91.9098C249.107 93.478 250.112 94.4073 251.484 94.4073C252.855 94.3783 253.861 93.449 253.861 91.9098Z" fill="#222222"/>
<path d="M256.085 94.3197H257.06V89.499H256.085V88.4535H261.997V90.5734H260.717V89.499H258.462V91.5318H261.052V92.6063H258.462V94.3197H259.498V95.3651H256.085V94.3197Z" fill="#222222"/>
<path d="M262.728 94.3197H263.704V89.499H262.728V88.4535H268.732V90.4863H267.452V89.499H265.105V91.3866H267.848V92.432H265.105V94.3487H267.482V93.3032H268.762V95.3942H262.728V94.3197Z" fill="#222222"/>
<path d="M269.859 95.1327V93.3903H271.109V94.2906C271.383 94.3486 271.81 94.4358 272.358 94.4358C273.12 94.4358 273.851 94.2615 273.851 93.5645C273.851 91.9964 269.951 92.8385 269.951 90.283C269.951 88.8309 271.231 88.2792 272.663 88.2792C273.486 88.2792 274.37 88.4534 274.979 88.6567V90.341H273.699V89.4117C273.455 89.3827 273.059 89.3246 272.693 89.3246C271.993 89.3246 271.261 89.5279 271.261 90.1668C271.261 91.6479 275.162 90.8347 275.162 93.4774C275.162 94.9875 273.851 95.4812 272.419 95.4812C271.475 95.4812 270.53 95.2779 269.859 95.1327Z" fill="#222222"/>
<path d="M276.198 95.1327V93.3903H277.447V94.2906C277.722 94.3486 278.148 94.4358 278.697 94.4358C279.459 94.4358 280.19 94.2615 280.19 93.5645C280.19 91.9964 276.289 92.8385 276.289 90.283C276.289 88.8309 277.569 88.2792 279.002 88.2792C279.824 88.2792 280.708 88.4534 281.318 88.6567V90.341H280.038V89.4117C279.794 89.3827 279.398 89.3246 279.032 89.3246C278.331 89.3246 277.6 89.5279 277.6 90.1668C277.6 91.6479 281.5 90.8347 281.5 93.4774C281.5 94.9875 280.19 95.4812 278.758 95.4812C277.844 95.4812 276.899 95.2779 276.198 95.1327Z" fill="#222222"/>
<path d="M282.537 94.3197H283.512V89.499H282.537V88.4535H285.889V89.499H284.913V94.3197H285.889V95.3651H282.537V94.3197Z" fill="#222222"/>
<path d="M286.711 91.9098C286.711 89.7899 288.296 88.3088 290.49 88.3088C292.684 88.3088 294.269 89.7899 294.269 91.9098C294.269 94.0298 292.684 95.5108 290.49 95.5108C288.266 95.4818 286.711 94.0298 286.711 91.9098ZM292.837 91.9098C292.837 90.3707 291.831 89.4124 290.46 89.4124C289.088 89.4124 288.083 90.3707 288.083 91.9098C288.083 93.478 289.088 94.4073 290.46 94.4073C291.831 94.3783 292.837 93.449 292.837 91.9098Z" fill="#222222"/>
<path d="M295.092 94.3197H296.067V89.499H295.092V88.4535H297.499L300.973 93.2452V89.499H299.998V88.4535H303.259V89.499H302.284V95.3942H301.065L297.377 90.3992V94.3487H298.352V95.3942H295.092V94.3197Z" fill="#222222"/>
<path d="M303.442 94.3197H304.295L306.337 89.499H305.331V88.4535H308.317L310.816 94.3487H311.7V95.3942H308.439V94.3487H309.384L308.988 93.3904H306.001L305.605 94.3487H306.55V95.3942H303.381V94.3197H303.442ZM308.592 92.3159L307.525 89.7022L306.458 92.3159H308.592Z" fill="#222222"/>
<path d="M312.157 94.3197H313.132V89.499H312.157V88.4535H315.692V89.499H314.534V94.3197H316.881V93.2161H318.16V95.3651H312.157V94.3197Z" fill="#222222"/>
<path d="M318.892 95.1327V93.3903H320.141V94.2906C320.416 94.3486 320.842 94.4358 321.391 94.4358C322.153 94.4358 322.884 94.2615 322.884 93.5645C322.884 91.9964 318.983 92.8385 318.983 90.283C318.983 88.8309 320.263 88.2792 321.695 88.2792C322.518 88.2792 323.402 88.4534 324.011 88.6567V90.341H322.732V89.4117C322.488 89.3827 322.092 89.3246 321.726 89.3246C321.025 89.3246 320.294 89.5279 320.294 90.1668C320.294 91.6479 324.194 90.8347 324.194 93.4774C324.194 94.9875 322.884 95.4812 321.452 95.4812C320.507 95.4812 319.562 95.2779 318.892 95.1327Z" fill="#222222"/>
<path d="M18.0234 10.8865H12.5991C12.3858 10.8865 12.1725 11.0317 12.1115 11.235L0.836188 41.3499C0.744766 41.6403 0.958084 41.9307 1.26282 41.9307H7.60138C7.78423 41.9307 7.96707 41.8145 8.02802 41.6403L10.1917 35.9193H20.4918L22.625 41.6403C22.6859 41.8145 22.8688 41.9307 23.0516 41.9307H29.3902C29.6949 41.9307 29.9082 41.6403 29.8168 41.3499L18.5415 11.235C18.4501 11.0317 18.2672 10.8865 18.0234 10.8865ZM12.3858 29.9951L15.3417 22.2703L18.2368 29.9951H12.3858Z" fill="#222222"/>
<path d="M324.194 63.6238C324.194 63.5076 324.164 63.3915 324.164 63.2753C323.89 61.4457 322.457 59.9356 320.568 59.4129L316.423 58.1932C314.199 56.0733 311.395 53.9243 308.226 52.5884L295.671 48.9293L295.64 48.9003C292.654 45.5026 287.351 44.1377 286.772 43.9925L274.766 44.8056L272.267 46.2867L268.976 45.2122L266.324 44.9798L263.856 45.4155L260.656 47.1869L258.858 49.2197V37.8359C258.858 37.8359 263.308 35.716 263.947 32.2021C263.947 32.2021 265.684 29.7046 273.638 30.6339C279.459 31.3018 284.243 29.4142 287.26 27.7008C288.631 28.1655 290.155 28.3107 291.618 28.2816C293.446 28.2526 295.457 28.0202 296.951 27.0329C298.017 27.0619 299.084 26.9458 300.089 26.7134C301.278 26.423 302.405 25.5809 302.07 24.3031C301.857 23.4899 301.217 22.9963 300.455 22.7349C300.181 21.9218 299.419 21.399 298.535 21.0506C298.749 19.4533 297.408 18.3788 295.854 18.0884C294.817 17.8852 293.751 17.769 292.654 17.6819C292.806 17.4205 292.867 17.1011 292.745 16.7526C292.41 15.7071 291.252 15.6781 290.338 15.5329C289.302 15.3877 288.509 14.865 287.656 14.3132C286.894 13.7905 286.071 13.5291 285.127 13.6743C284.853 13.7324 284.578 13.7905 284.304 13.9066C283.664 13.2677 282.78 12.745 282.079 12.3965C281.561 12.1352 281.013 11.9028 280.434 11.6705C281.196 11.0026 281.5 9.98616 280.678 9.05687C280.099 8.38894 279.245 8.18566 278.362 8.12758C278.057 8.09854 277.783 8.09854 277.478 8.09854C277.417 7.6339 277.204 7.19829 276.716 6.8498C276.381 6.61748 275.985 6.4142 275.558 6.269C275.223 5.60107 274.735 5.02026 273.943 4.78793C273.364 4.61369 272.754 4.64273 272.145 4.72985C271.779 3.9748 271.139 3.33591 270.347 2.95839C269.646 2.6099 268.884 2.49374 268.092 2.6099C267.239 2.69703 266.416 3.01647 265.563 3.04551C264.679 3.04551 263.856 2.69703 262.972 2.69703C262.21 2.69703 261.449 2.87127 260.717 3.07455C260.565 3.13263 260.382 3.19071 260.23 3.21975C260.169 2.05814 259.712 0.925562 258.31 0.664199C257.822 0.577077 257.335 0.693237 256.878 0.780358C256.329 0.89652 255.841 0.896522 255.293 0.809401C254.379 0.664199 253.495 0.402837 252.581 0.548039C251.849 0.6642 251.27 0.983643 250.813 1.53541C250.539 1.85485 250.356 2.1743 249.899 2.23238C249.564 2.29046 249.198 2.26142 248.863 2.23238C248.071 2.20334 247.37 2.29046 246.669 2.66798C246.273 2.90031 245.937 3.07455 245.48 3.13263C245.084 3.16167 244.688 3.10359 244.292 3.16167C243.53 3.2488 242.981 3.62632 242.555 4.20713C242.189 4.72985 242.006 5.45587 241.397 5.77531C240.787 6.09475 240.117 6.18187 239.629 6.67556C239.325 6.995 239.203 7.40157 238.928 7.75005C238.685 8.04046 238.319 8.18566 238.014 8.41799C236.826 9.26016 236.308 10.596 236.003 11.9609C235.912 12.3384 235.851 12.745 235.79 13.1225C235.759 13.4129 235.759 13.8485 235.515 14.0518C234.997 14.5165 233.839 14.1099 233.23 14.1389C230.274 14.3713 229.024 16.9849 227.348 18.9887C226.922 18.9887 226.495 18.9596 226.068 18.9596C225.307 18.9306 224.514 18.8725 223.752 19.0177C223.082 19.1629 222.503 19.5114 222.076 20.0051C221.863 20.2374 221.68 20.4988 221.528 20.7602C221.406 20.9634 221.284 21.4281 221.071 21.5442C220.857 21.6604 220.431 21.5733 220.157 21.6314C219.821 21.7185 219.517 21.8346 219.242 22.0089C218.755 22.3283 218.359 22.822 218.206 23.3738C217.901 24.4773 218.48 25.5518 219.486 26.0745C219.517 26.9458 219.76 27.817 220.339 28.4268C220.827 28.9495 221.619 29.1528 222.32 29.298C222.351 29.298 222.412 29.298 222.442 29.3271C222.655 29.7046 222.96 30.0531 223.387 30.2854C224.453 30.8372 225.886 30.8662 227.074 30.9243C228.415 30.9824 229.817 30.8953 231.097 30.4887C231.371 30.4016 231.645 30.3144 231.919 30.1983C233.474 31.1566 235.424 32.0859 237.466 32.3763C241.153 32.9281 242.341 30.9533 242.341 30.9533L248.771 32.4053C254.775 33.6541 254.836 39.0556 254.836 39.0556V50.6137L239.66 51.9205C235.028 54.3308 230.944 57.6124 227.684 61.5329L226.221 61.9975C221.924 63.3915 220.278 68.4735 223.173 71.7841C223.417 72.0455 223.661 72.3069 223.935 72.5101C228.659 76.2273 237.344 80.7576 251.91 81.1642C252.428 81.1642 252.946 81.1932 253.434 81.1932C260.778 81.1932 268.61 79.7993 274.857 77.3308C275.497 77.0985 276.076 76.8662 276.625 76.6339L276.746 76.5758C283.816 73.7589 284.456 73.7879 295.122 74.2526C299.48 74.4268 314.26 74.5139 322.457 67.6894C323.676 66.7021 324.316 65.192 324.194 63.6238ZM286.011 46.8384C286.011 46.8384 290.856 48.0291 293.294 50.7879L293.263 53.5468L295.214 55.4053L298.931 56.8574L295.396 61.7652L288.997 62.8106L284.456 59.9066L283.42 55.2311L284.517 54.8245L284.06 53.6629L281.531 52.3851L281.196 50.846L282.597 50.091L282.232 49.1617L278.331 47.4773L286.011 46.8384ZM279.428 58.4836L282.354 60.7197L278.331 61.649L276.015 65.4824L272.815 66.673L268.701 65.8018L266.782 63.1882L269.341 62.6654L270.774 61.8523L270.987 60.4874C272.754 59.0354 276.046 58.3094 276.046 58.3094L279.428 58.4836ZM265.197 48.3485L267.421 48.4647L269.098 49.5101L271.292 48.697L274.613 49.8296L275.863 52.5884L275.68 55.6957L272.206 56.8574L268.793 56.2475L268.701 52.5884L266.263 50.091L264.77 51.1945L263.064 49.6844L265.197 48.3485ZM253.16 55.0569L256.055 53.8372L259.285 54.3599L261.052 53.5177L263.277 53.6339L265.227 55.2021L263.216 56.9735L258.462 57.6415L257.426 59.1225L258.736 61.0682L255.262 61.3005L252.337 60.4874L250.874 57.6415L253.16 55.0569ZM320.629 65.7437C315.631 69.8965 306.154 72.1036 295.244 71.6389C283.329 71.1452 282.597 71.4356 275.68 74.1654C275.101 74.3978 274.491 74.6301 273.821 74.8915C267.482 77.3889 259.407 78.7248 252.002 78.5215C238.228 78.144 230.091 73.9331 225.733 70.4773C224.392 69.4319 223.935 67.6313 224.545 66.1212C225.489 67.1957 227.135 68.793 229.756 70.4192C233.748 72.8877 240.848 75.9079 252.093 76.2273C259.102 76.4306 266.873 75.1238 272.937 72.7715C273.608 72.5101 274.217 72.2778 274.796 72.0455C281.866 69.2576 282.933 68.822 295.396 69.3447C304.417 69.7223 316.332 68.096 320.751 62.2879C321.177 62.6945 321.452 63.2172 321.513 63.8271C321.482 64.5531 321.208 65.25 320.629 65.7437Z" fill="#222222"/>
</svg>
